<svg width="60" height="60" viewBox="0 0 60 60" fill="none" xmlns="http://www.w3.org/2000/svg">
<path d="M53.5176 33.4218L46.1738 40.4458L48.4 41.0938C45.209 46.3398 39.4395 48.6489 32.8689 49.1015V22.5H38.9627C39.4704 23.0115 40.1735 23.3238 40.955 23.3238C42.5023 23.3238 43.7598 22.0715 43.7598 20.519C43.7598 18.968 42.5023 17.7105 40.955 17.7105C40.1818 17.7105 39.4787 18.0266 38.9627 18.5388H32.8689V15.3319C35.8298 14.1755 37.9466 11.3088 37.9466 7.93905C37.9473 3.5682 34.3852 0 30.0007 0C25.6171 0 22.0572 3.5682 22.0572 7.93905C22.0572 11.5382 24.481 14.5602 27.7761 15.5273V18.535H21.0373C20.5273 18.0273 19.825 17.7105 19.0487 17.7105C17.5 17.7105 16.2402 18.968 16.2402 20.519C16.2402 22.0715 17.5 23.3238 19.0487 23.3238C19.8242 23.3238 20.5273 23.0115 21.0373 22.5H27.7761V49.0857C20.8524 48.5697 14.8091 45.8743 11.7758 40.1909L13.9929 39.7028L7.12884 32.2186L4.07211 41.9063L6.66038 41.3277C10.4436 49.6168 19.0683 56.293 28.8081 56.9372L30.3199 60L31.8278 56.9448C41.0916 56.3239 49.3376 50.2339 53.4158 42.5626L55.9271 43.2974L53.5176 33.4218ZM25.9279 7.93905C25.9279 5.69101 27.7557 3.86693 30.0038 3.86693C32.251 3.86693 34.0797 5.69101 34.0797 7.93905C34.0797 10.1871 32.2473 12.0149 30 12.0149C27.752 12.0157 25.9279 10.1878 25.9279 7.93905Z" fill="#2C3355"/>
</svg>
