<svg width="180" height="180" viewBox="0 0 180 180" fill="none" xmlns="http://www.w3.org/2000/svg">
<rect width="180" height="180" rx="32" fill="#1C1C1C"/>
<path fill-rule="evenodd" clip-rule="evenodd" d="M60 105L51.5901 113.41C47.3705 117.629 41.6476 120 35.6802 120H30V60H35.6802C41.6476 60 47.3705 62.3705 51.5901 66.5901L60 75L82.5 60V37.5H97.5L150 82.5V97.5L97.5 142.5H82.5V120L60 105ZM127.5 82.5C127.5 86.6421 124.142 90 120 90C115.858 90 112.5 86.6421 112.5 82.5C112.5 78.3579 115.858 75 120 75C124.142 75 127.5 78.3579 127.5 82.5Z" fill="white"/>
</svg>
